<svg width="28" height="28" viewBox="0 0 28 28" fill="none" xmlns="http://www.w3.org/2000/svg">
<circle cx="14" cy="14" r="14" fill="#004876"/>
<path d="M21.0493 20.2438L20.4942 10.3926H17.7214V9.59726C17.7214 7.61364 16.0727 6 14.0462 6C12.0196 6 10.371 7.61372 10.371 9.59726V10.3926H7.47808L7.00056 20.2864L7.00008 20.3035C6.99616 20.6596 7.14072 21.009 7.39648 21.2619C7.65232 21.515 8.00776 21.6604 8.37168 21.6604H19.6798C20.0548 21.6604 20.418 21.5074 20.676 21.2407C20.9339 20.9739 21.07 20.6106 21.0493 20.2438ZM11.3295 9.59726C11.3295 8.13106 12.5482 6.93821 14.0462 6.93821C15.5441 6.93821 16.7628 8.13106 16.7628 9.59726V10.3926H11.3294V9.59726H11.3295ZM19.9798 20.5956C19.9019 20.6759 19.7926 20.7221 19.6797 20.7221H8.3716C8.262 20.7221 8.15504 20.6784 8.07784 20.6019C8.00248 20.5276 7.9592 20.4252 7.95848 20.3203L8.39232 11.3308H10.3708V12.5189C10.3708 12.778 10.5854 12.988 10.8501 12.988C11.1148 12.988 11.3294 12.778 11.3294 12.5189V11.3308H16.7627V12.5189C16.7627 12.778 16.9773 12.988 17.242 12.988C17.5067 12.988 17.7212 12.778 17.7212 12.5189V11.3308H19.5869L20.0919 20.2956C20.0984 20.406 20.0574 20.5153 19.9798 20.5956Z" fill="white"/>
</svg>
