<svg width="41" height="35" viewBox="0 0 41 35" fill="none" xmlns="http://www.w3.org/2000/svg">
<path d="M40.2135 18.9673C40.21 19.0096 40.21 19.0521 40.2135 19.0944C40.1774 19.52 40.0908 19.9399 39.9556 20.3457C39.4776 21.9306 38.4894 23.3192 37.1401 24.3016C35.7908 25.284 34.1538 25.807 32.4764 25.7915H32.149L32.0696 25.9186C31.6907 26.7018 31.2599 27.4594 30.7801 28.1868C30.3554 28.8234 29.867 29.4163 29.322 29.9565C28.3967 30.8978 27.3454 31.7102 26.1973 32.3714C25.0633 33.0195 23.8499 33.5222 22.5866 33.8673C21.6099 34.1185 20.615 34.295 19.6108 34.3952C18.6516 34.4879 17.6873 34.5174 16.7242 34.4832C16.1227 34.4666 15.5229 34.4111 14.9288 34.317C14.0927 34.2007 13.2669 34.0208 12.4589 33.7792C10.8289 33.3081 9.28765 32.5783 7.89587 31.6185C6.63742 30.7348 5.52346 29.6665 4.59266 28.4508C3.61548 27.1615 2.82742 25.743 2.25168 24.237C1.7713 22.9847 1.39314 21.6965 1.12085 20.3849C1.02165 19.9156 0.942336 19.4072 0.853061 18.9575C0.853061 18.8206 0.783588 18.6935 0.75383 18.5566C0.664554 18.0286 0.575279 17.5007 0.505843 16.9727C0.406648 16.2883 0.327343 15.5942 0.247987 14.9C0.247987 14.4992 0.178514 14.0983 0.148756 13.6975C0.089239 13.0326 0.0694242 12.3678 0.0495853 11.7421C0.0297463 11.1164 0.0495853 10.4906 0.0495853 9.87467C0.0495853 9.7769 0.0495853 9.67909 0.0495853 9.5911C0.0310785 9.55952 0.0145282 9.5269 0 9.49336V8.67213C0.0421244 8.60419 0.065966 8.52683 0.0693831 8.44728C0.0644985 8.37566 0.0644985 8.30371 0.0693831 8.23209C0.0929249 7.95089 0.199371 7.68262 0.375613 7.46028C0.551855 7.23793 0.790202 7.07129 1.06133 6.98074C1.25585 6.91419 1.46057 6.88114 1.66647 6.88299H11.7645C11.8499 6.89721 11.937 6.89721 12.0224 6.88299C12.0224 6.81455 12.0224 6.73625 12.0224 6.66781C12.0873 6.10562 12.224 5.55382 12.4291 5.02535C12.7842 4.05527 13.3371 3.16706 14.0536 2.41547C14.7701 1.66388 15.635 1.06471 16.5953 0.654978C17.423 0.294606 18.3104 0.0859974 19.214 0.0391459H19.4322H19.958H20.1266H20.6325C21.6199 0.150636 22.5745 0.456437 23.4397 0.938547C25.1314 1.85507 26.4103 3.36691 27.0207 5.17203L27.1099 5.41645C27.2091 5.41645 27.2488 5.29907 27.3083 5.23063L30.9091 1.1048C31.4363 0.489679 32.1808 0.0948025 32.9921 0C33.0416 0.00442634 33.0915 0.00442634 33.141 0H33.6667H33.746C34.3597 0.103567 34.9464 0.326149 35.472 0.654978L35.6208 0.762629L35.472 0.948333L32.2581 4.72221L25.7311 12.3873C25.5625 12.5828 25.3938 12.7784 25.2153 12.9544C24.299 13.8723 23.162 14.5469 21.9102 14.9154C20.6584 15.2839 19.3323 15.3344 18.0554 15.0622C16.7785 14.79 15.5921 14.2039 14.6067 13.3584C13.6213 12.513 12.8687 11.4357 12.4191 10.2266C12.4191 10.168 12.4192 10.1094 12.3398 10.0409H3.938C3.75548 10.0529 3.57704 10.0994 3.4123 10.1778C3.32119 10.2155 3.24388 10.2796 3.19071 10.3617C3.13755 10.4438 3.111 10.54 3.11467 10.6373C3.11467 11.7519 3.11467 12.8567 3.17418 13.9615C3.17418 14.7632 3.28331 15.5649 3.37259 16.3666C3.51414 17.5575 3.72613 18.7392 4.00745 19.9058C4.3942 21.5816 4.99761 23.2015 5.80287 24.7259C6.45577 25.959 7.29158 27.0892 8.28274 28.0793C9.66618 29.444 11.3697 30.4515 13.2425 31.0124C14.0844 31.2712 14.9526 31.4384 15.8314 31.511C16.377 31.511 16.9325 31.5697 17.4781 31.5697C18.1409 31.5798 18.8036 31.5471 19.462 31.4719C20.4498 31.3584 21.4214 31.1354 22.3585 30.8071C23.6221 30.3587 24.7969 29.6971 25.8303 28.8517C27.0595 27.8036 28.0905 26.549 28.8756 25.1462L28.9252 25.0387L28.7367 24.9214C27.0021 23.9891 25.6932 22.4402 25.0764 20.5901C25.0632 20.5246 25.0324 20.4639 24.9872 20.4142C24.888 20.512 24.8086 20.6195 24.7193 20.7172C23.5488 22.0567 22.3783 23.4059 21.1979 24.7453C20.7448 25.2771 20.1225 25.6424 19.4322 25.7817C19.0489 25.8548 18.655 25.8548 18.2717 25.7817C17.6673 25.6565 17.092 25.4211 16.5754 25.0876L16.506 25.0191C16.5754 24.9507 16.625 24.8823 16.6845 24.8138L19.829 21.1181C21.2971 19.4072 22.8049 17.6864 24.2234 15.9657C25.007 15.0466 25.7807 14.1179 26.5743 13.2086C27.8678 11.7114 29.7055 10.7741 31.6927 10.5982C32.5257 10.5133 33.3672 10.5662 34.1825 10.7546C35.4472 11.046 36.6172 11.6466 37.5846 12.5009C38.5519 13.3552 39.2854 14.4358 39.7176 15.6431C39.9256 16.1729 40.0559 16.7292 40.1044 17.2953C40.0999 17.3343 40.0999 17.3737 40.1044 17.4126L40.2135 18.9673ZM36.8112 18.1655C36.8112 17.3258 36.5584 16.5051 36.0849 15.8071C35.6115 15.1091 34.9385 14.5652 34.1513 14.2443C33.3641 13.9235 32.498 13.84 31.6626 14.0046C30.8272 14.1691 30.0601 14.5742 29.4584 15.1686C28.8568 15.763 28.4476 16.5199 28.2826 17.3437C28.1176 18.1674 28.2042 19.021 28.5316 19.7961C28.8589 20.5713 29.4123 21.2333 30.1216 21.6984C30.8308 22.1635 31.6641 22.4106 32.516 22.4086C33.0809 22.4086 33.6403 22.2989 34.162 22.0856C34.6838 21.8722 35.1577 21.5594 35.5566 21.1653C35.9556 20.7711 36.2718 20.3034 36.4871 19.7886C36.7023 19.2739 36.8125 18.7222 36.8112 18.1655ZM24.0349 7.53797C24.0349 6.69875 23.7824 5.87841 23.3093 5.18062C22.8363 4.48284 22.164 3.93893 21.3773 3.61777C20.5907 3.29662 19.725 3.21261 18.8899 3.37633C18.0548 3.54006 17.2877 3.94416 16.6857 4.53758C16.0836 5.131 15.6736 5.88708 15.5075 6.71018C15.3414 7.53328 15.4266 8.38647 15.7524 9.16181C16.0783 9.93715 16.6301 10.5999 17.3381 11.0661C18.046 11.5324 18.8783 11.7811 19.7298 11.7811C20.2955 11.7824 20.8559 11.6736 21.3788 11.4608C21.9017 11.248 22.3768 10.9355 22.7768 10.5412C23.1769 10.147 23.4939 9.67875 23.7098 9.16336C23.9257 8.64797 24.0362 8.09556 24.0349 7.53797Z" fill="#004876"/>
</svg>
