<svg width="17" height="17" viewBox="0 0 17 17" fill="none" xmlns="http://www.w3.org/2000/svg">
<path d="M7.43479 0.690965C7.73415 -0.230346 9.03755 -0.230344 9.33691 0.690967L10.631 4.67375C10.7649 5.08577 11.1488 5.36473 11.582 5.36473H15.7698C16.7385 5.36473 17.1413 6.60434 16.3576 7.17375L12.9696 9.63524C12.6191 9.88988 12.4725 10.3413 12.6063 10.7533L13.9004 14.7361C14.1998 15.6574 13.1453 16.4235 12.3616 15.8541L8.97363 13.3926C8.62315 13.1379 8.14855 13.1379 7.79806 13.3926L4.41011 15.8541C3.62639 16.4235 2.57192 15.6574 2.87127 14.7361L4.16535 10.7533C4.29923 10.3412 4.15257 9.88988 3.80208 9.63524L0.414124 7.17374C-0.36959 6.60434 0.0331874 5.36473 1.00191 5.36473H5.18965C5.62288 5.36473 6.00683 5.08577 6.14071 4.67375L7.43479 0.690965Z" fill="#E1B168"/>
</svg>
